<?xml version="1.0" encoding="UTF-8" standalone="no"?>
<!-- Created with Inkscape (http://www.inkscape.org/) -->

<svg
   xmlns:dc="http://purl.org/dc/elements/1.1/"
   xmlns:cc="http://creativecommons.org/ns#"
   xmlns:rdf="http://www.w3.org/1999/02/22-rdf-syntax-ns#"
   xmlns:svg="http://www.w3.org/2000/svg"
   xmlns="http://www.w3.org/2000/svg"
   xmlns:sodipodi="http://sodipodi.sourceforge.net/DTD/sodipodi-0.dtd"
   xmlns:inkscape="http://www.inkscape.org/namespaces/inkscape"
   width="210mm"
   height="297mm"
   viewBox="0 0 210 297"
   version="1.1"
   id="svg8"
   inkscape:version="0.92.2 (5c3e80d, 2017-08-06)"
   sodipodi:docname="amara.svg"
   inkscape:export-filename="E:\Documents\Diagonal\img\amara.png"
   inkscape:export-xdpi="96"
   inkscape:export-ydpi="96">
  <defs
     id="defs2" />
  <sodipodi:namedview
     id="base"
     pagecolor="#ffffff"
     bordercolor="#666666"
     borderopacity="1.0"
     inkscape:pageopacity="0.0"
     inkscape:pageshadow="2"
     inkscape:zoom="1.4"
     inkscape:cx="403.25055"
     inkscape:cy="651.76997"
     inkscape:document-units="mm"
     inkscape:current-layer="layer1"
     showgrid="true"
     inkscape:window-width="1920"
     inkscape:window-height="1018"
     inkscape:window-x="-8"
     inkscape:window-y="-8"
     inkscape:window-maximized="1"
     inkscape:lockguides="false">
    <inkscape:grid
       type="xygrid"
       id="grid817" />
  </sodipodi:namedview>
  <metadata
     id="metadata5">
    <rdf:RDF>
      <cc:Work
         rdf:about="">
        <dc:format>image/svg+xml</dc:format>
        <dc:type
           rdf:resource="http://purl.org/dc/dcmitype/StillImage" />
        <dc:title></dc:title>
      </cc:Work>
    </rdf:RDF>
  </metadata>
  <g
     inkscape:groupmode="layer"
     id="layer2"
     inkscape:label="fond">
    <rect
       style="fill:#ff0000;fill-opacity:1;stroke:none;stroke-width:2;stroke-miterlimit:4;stroke-dasharray:none;stroke-opacity:1"
       id="rect902"
       width="82.020836"
       height="119.0625"
       x="66.145828"
       y="77.395844" />
  </g>
  <g
     inkscape:label="Calque 1"
     inkscape:groupmode="layer"
     id="layer1">
    <path
       style="fill:#ecd0bb;fill-opacity:1;stroke:none;stroke-width:0.26458332px;stroke-linecap:butt;stroke-linejoin:miter;stroke-opacity:1"
       d="m 89.958332,127.66667 -7.937499,5.29166 v 23.8125 h 7.9375 l -10e-7,23.8125 H 127 v -23.8125 h 7.9375 v -23.8125 L 127,127.66667 Z"
       id="path819"
       inkscape:connector-curvature="0"
       sodipodi:nodetypes="ccccccccccc" />
    <path
       style="fill:#505050;fill-opacity:1;stroke:none;stroke-width:0.26458332px;stroke-linecap:butt;stroke-linejoin:miter;stroke-opacity:1"
       d="M 89.958332,164.70833 V 177.9375 H 127 v -13.22917 z"
       id="path823"
       inkscape:connector-curvature="0" />
    <path
       style="fill:#1b1b1b;fill-opacity:1;stroke:#000000;stroke-width:0.26458332px;stroke-linecap:butt;stroke-linejoin:miter;stroke-opacity:1"
       d="M 89.958332,177.9375 H 127 v 2.64583 H 89.958332 Z"
       id="path835"
       inkscape:connector-curvature="0" />
    <path
       style="fill:#ffffff;fill-opacity:1;stroke:none;stroke-width:0.26458332px;stroke-linecap:butt;stroke-linejoin:miter;stroke-opacity:1"
       d="m 89.958336,127.66667 -3e-6,0 H 108.47917 127 v 0 l 0,0 7.9375,5.29166 0,7.9375 H 127 l 0,23.8125 H 89.958333 l 0,-23.8125 h -7.9375 l 4e-6,-7.9375 z"
       id="path821"
       inkscape:connector-curvature="0"
       sodipodi:nodetypes="ccccccccccccccc" />
    <ellipse
       style="fill:#d5d5d5;fill-opacity:1;stroke:none;stroke-width:2;stroke-miterlimit:4;stroke-dasharray:none;stroke-opacity:1"
       id="path2384"
       cx="108.38467"
       cy="127.66668"
       rx="18.520834"
       ry="13.229166" />
    <ellipse
       style="fill:#ffffff;fill-opacity:1;stroke:none;stroke-width:1.86492407;stroke-miterlimit:4;stroke-dasharray:none;stroke-opacity:1"
       id="path2384-5"
       cx="108.24291"
       cy="127.57408"
       rx="17.339659"
       ry="12.286121" />
    <path
       style="fill:#ecd0bb;fill-opacity:1;stroke:none;stroke-width:0.26458332px;stroke-linecap:butt;stroke-linejoin:miter;stroke-opacity:1"
       d="M 89.958322,127.66665 108.47918,130.31248 127,127.66665 V 90.624987 H 89.958322 Z"
       id="path839"
       inkscape:connector-curvature="0" />
    <path
       style="fill:#040300;fill-opacity:1;stroke:none;stroke-width:0.26458332px;stroke-linecap:butt;stroke-linejoin:miter;stroke-opacity:1"
       d="m 89.958322,109.14581 -1.32292,-9.260413 v -9.26042 l 1.32292,-3.96875 5.291665,-3.96875 -1.32291,2.64583 5.29167,-2.64583 -2.64584,2.64583 3.968763,-2.64583 -2.645843,2.64583 5.291673,-2.64583 -1.32292,2.64583 3.96875,-2.64583 -1.32291,2.64583 2.64583,-2.64583 v 3.96875 l 1.32292,-3.96875 2.64583,2.64583 v -2.64583 l 3.96875,1.32292 v 1.32291 l 1.32292,-1.32291 3.47265,1.40563 1.819,-0.0827 1.32293,1.32292 2.64582,2.64583 2.64585,2.64584 v 7.9375 L 127,109.14579 125.67707,94.593707 123.03125,91.947877 H 93.927077 l -2.64584,2.64583 z"
       id="path833-7"
       inkscape:connector-curvature="0"
       sodipodi:nodetypes="cccccccccccccccccccccccccccccccccc" />
    <path
       style="fill:#e0b191;fill-opacity:1;stroke:none;stroke-width:0.26458332px;stroke-linecap:butt;stroke-linejoin:miter;stroke-opacity:1"
       d="m 103.18751,119.72915 h 10.58332 v 2.64583 h -10.58332 z"
       id="path837-1"
       inkscape:connector-curvature="0" />
    <path
       style="fill:#000000;stroke:none;stroke-width:0.26458332px;stroke-linecap:butt;stroke-linejoin:miter;stroke-opacity:1;fill-opacity:1"
       d="m 89.958332,117.08333 1.322917,7.9375 17.197921,2.64584 17.19791,-2.64584 1.32292,-7.9375 v 10.58334 l -18.52083,2.64583 -18.520838,-2.64583 z"
       id="path2521"
       inkscape:connector-curvature="0" />
  </g>
</svg>
